<?xml version="1.0" standalone="no"?>
<!DOCTYPE svg PUBLIC "-//W3C//DTD SVG 20010904//EN"
 "http://www.w3.org/TR/2001/REC-SVG-20010904/DTD/svg10.dtd">
<svg version="1.0" xmlns="http://www.w3.org/2000/svg"
 width="64.000000pt" height="64.000000pt" viewBox="0 0 64.000000 64.000000"
 preserveAspectRatio="xMidYMid meet">
<metadata>
Created by potrace 1.11, written by Peter Selinger 2001-2013
</metadata>
<g transform="translate(0.000000,64.000000) scale(0.100000,-0.100000)"
fill="#000000" stroke="none">
<path d="M0 320 l0 -320 320 0 320 0 0 320 0 320 -320 0 -320 0 0 -320z m106
65 c-4 -19 -5 -35 -2 -35 2 0 14 16 26 35 15 24 29 35 46 35 30 0 30 -2 -5
-51 l-30 -40 20 -45 c24 -57 24 -54 -6 -54 -20 0 -29 8 -43 43 l-17 42 -5 -40
c-4 -32 -9 -41 -27 -43 -27 -4 -28 4 -12 113 11 70 13 75 36 75 23 0 25 -3 19
-35z m148 10 c0 -11 -4 -44 -8 -72 l-7 -53 31 0 c25 0 31 -4 28 -17 -2 -14
-15 -19 -56 -21 -60 -4 -59 -8 -41 113 11 69 14 76 33 73 14 -2 21 -10 20 -23z
m142 -30 c9 -40 12 -44 13 -20 2 53 12 75 33 75 18 0 20 -5 15 -37 -4 -21 -9
-64 -13 -95 -6 -55 -8 -58 -34 -58 -29 0 -40 15 -40 56 0 14 -4 22 -10 19 -5
-3 -10 -22 -10 -41 0 -28 -4 -34 -21 -34 -21 0 -21 3 -15 73 11 110 14 119 44
115 22 -3 28 -10 38 -53z m130 20 c-4 -19 -5 -35 -2 -35 2 0 14 16 26 35 15
24 29 35 46 35 30 0 30 -2 -5 -51 l-30 -40 20 -45 c24 -57 24 -54 -6 -54 -20
0 -29 8 -43 43 l-17 42 -5 -40 c-4 -32 -9 -41 -27 -43 -27 -4 -28 4 -12 113
11 70 13 75 36 75 23 0 25 -3 19 -35z"/>
</g>
</svg>
