<?xml version="1.0" standalone="no"?>
<!DOCTYPE svg PUBLIC "-//W3C//DTD SVG 20010904//EN"
 "http://www.w3.org/TR/2001/REC-SVG-20010904/DTD/svg10.dtd">
<svg version="1.0" xmlns="http://www.w3.org/2000/svg"
 width="458.000000pt" height="458.000000pt" viewBox="0 0 458.000000 458.000000"
 preserveAspectRatio="xMidYMid meet">
<metadata>
Created by potrace 1.11, written by Peter Selinger 2001-2013
</metadata>
<g transform="translate(0.000000,458.000000) scale(0.100000,-0.100000)"
fill="#000000" stroke="none">
<path d="M1880 4091 c-67 -9 -157 -57 -175 -92 -9 -16 -17 -29 -18 -29 -1 0
-29 -5 -62 -10 -33 -6 -105 -15 -160 -19 -130 -12 -182 -30 -280 -100 -44 -32
-101 -72 -127 -89 -26 -18 -57 -50 -69 -72 -15 -26 -32 -43 -49 -46 -68 -15
-117 -42 -165 -91 -94 -98 -130 -134 -209 -208 l-79 -73 5 -52 c5 -46 2 -55
-26 -91 -71 -93 -76 -102 -76 -143 0 -35 -6 -46 -40 -77 -39 -35 -40 -39 -40
-100 0 -43 -7 -79 -21 -109 -12 -25 -22 -68 -23 -97 -1 -37 -8 -60 -24 -80
-39 -48 -43 -69 -30 -139 9 -49 9 -76 0 -115 -7 -28 -12 -90 -12 -137 0 -77 5
-103 45 -219 52 -155 90 -221 142 -250 21 -12 48 -35 61 -52 28 -39 87 -56
140 -41 20 5 40 10 43 10 4 0 6 -42 6 -92 -1 -81 2 -102 27 -160 23 -55 42
-81 105 -140 43 -40 102 -86 132 -102 30 -16 75 -48 100 -72 31 -28 60 -45 85
-50 48 -8 70 -19 110 -54 24 -20 46 -28 93 -33 34 -4 76 -14 93 -23 24 -12 48
-15 97 -11 48 4 80 0 124 -14 70 -22 136 -24 192 -4 64 23 67 15 60 -154 -8
-171 2 -202 69 -235 35 -17 46 -18 95 -8 82 18 108 47 116 135 10 103 33 234
51 292 9 28 43 87 76 132 72 101 108 177 111 237 3 40 8 48 54 84 60 48 93 88
93 113 0 10 -95 263 -211 563 l-210 546 387 532 c213 293 394 541 403 551 15
16 40 17 284 15 l268 -3 -401 -544 c-256 -346 -400 -549 -397 -560 6 -20 354
-848 364 -866 11 -18 80 9 88 35 7 21 42 36 105 46 69 10 146 51 186 98 19 23
62 82 94 130 79 119 91 188 68 406 l-3 25 147 7 c81 4 156 12 167 18 11 5 39
10 63 10 25 0 61 9 83 21 22 11 63 29 91 39 48 17 122 61 186 110 35 27 90
141 119 245 29 106 23 232 -15 309 -14 28 -30 73 -36 99 -14 66 -45 123 -94
178 -22 25 -53 69 -69 98 -19 36 -42 61 -74 81 -26 17 -51 37 -56 45 -4 8 -13
15 -20 15 -38 0 -86 23 -93 43 -12 37 -53 84 -108 122 -45 31 -64 37 -135 44
-48 5 -89 15 -99 24 -32 28 -77 45 -162 62 -47 9 -121 23 -164 32 -43 8 -97
24 -120 34 -47 21 -85 24 -119 8 -20 -9 -33 -6 -78 17 -45 22 -69 27 -139 29
-47 1 -123 7 -170 13 -75 9 -91 8 -142 -10 -51 -17 -64 -18 -118 -7 -37 7 -87
9 -128 5 -88 -9 -86 -9 -167 8 -73 16 -138 18 -215 7z m350 -483 c1 -7 -73
-538 -162 -1180 l-163 -1168 -263 0 -263 0 6 33 c5 30 325 2316 325 2323 0 2
117 4 260 4 201 0 260 -3 260 -12z"/>
</g>
</svg>
