<?xml version="1.0" encoding="utf-8"?>
<!-- Generator: Adobe Illustrator 24.1.0, SVG Export Plug-In . SVG Version: 6.00 Build 0)  -->
<svg version="1.1" id="Layer_1" xmlns="http://www.w3.org/2000/svg" xmlns:xlink="http://www.w3.org/1999/xlink" x="0px" y="0px"
	 viewBox="0 0 180 180" style="enable-background:new 0 0 180 180;" xml:space="preserve">
<style type="text/css">
	.st0{fill:#FFFFFF;}
	.st1{
		fill:none;
		stroke:#2a7e70;
		stroke-width:6;
		stroke-linecap:round;
		stroke-linejoin:round;
		stroke-miterlimit:10;
		opacity: .5;
		transform: translateX(-1px);	
	}
	.st2{
		fill:none;
		stroke:#FF8349;
		stroke-width:6;
		stroke-linecap:round;
		stroke-linejoin:round;
		stroke-miterlimit:10;
		transform: translateX(1px);	
	}
	.st3{fill:none;stroke:blue;stroke-width:6
;stroke-linecap:round;stroke-linejoin:round;stroke-miterlimit:10; transform: translateX(7.5px); opacity: .2}
</style>
<path class="st0" d="M155,180H25c-13.81,0-25-11.19-25-25V25C0,11.19,11.19,0,25,0h130c13.81,0,25,11.19,25,25v130
	C180,168.81,168.81,180,155,180z"/>
<g>
	<path class="st2" d="M149.66,93.54l-48.63,48.63c-1.95,1.95-5.12,1.95-7.07,0L43.93,92.12c-1.17-1.17-1.17-3.07,0-4.24l50.04-50.04
		c1.95-1.95,5.12-1.95,7.07,0l48.63,48.63C151.62,88.42,151.62,91.58,149.66,93.54z"/>
	<path class="st1" d="M136.78,91.41l-50.75,50.75c-1.95,1.95-5.12,1.95-7.07,0L30.34,93.54c-1.95-1.95-1.95-5.12,0-7.07l48.63-48.63
		c1.95-1.95,5.12-1.95,7.07,0l50.75,50.75C137.56,89.37,137.56,90.63,136.78,91.41z"/>
</g>
</svg>
